<svg width="109" height="28" viewBox="0 0 109 28" fill="none" xmlns="http://www.w3.org/2000/svg">
<path d="M42.4386 6C43.913 6 45.0844 6.12842 45.9527 6.38527C46.8374 6.62606 47.4764 7.05949 47.8696 7.68555C48.2628 8.31161 48.4594 9.19452 48.4594 10.3343C48.4594 11.5222 48.2218 12.4292 47.7467 13.0552C47.288 13.6652 46.5261 14.0184 45.4612 14.1147V14.2592C46.7719 14.3716 47.6894 14.805 48.2136 15.5595C48.7379 16.2979 49 17.3333 49 18.6657C49 19.8055 48.7952 20.6884 48.3856 21.3144C47.9924 21.9405 47.3699 22.382 46.518 22.6388C45.6824 22.8796 44.5848 23 43.225 23C42.1273 23 41.1689 22.992 40.3497 22.9759C39.5469 22.9759 38.8015 22.9599 38.1134 22.9278C37.4253 22.8957 36.7209 22.8555 36 22.8074L36.3686 20.255C36.7618 20.271 37.5154 20.2871 38.6295 20.3031C39.7599 20.3192 41.0706 20.3272 42.5614 20.3272C43.2495 20.3272 43.7902 20.263 44.1834 20.1346C44.5766 20.0061 44.8469 19.7734 44.9943 19.4363C45.1582 19.0831 45.2401 18.5855 45.2401 17.9433C45.2401 17.2531 45.1582 16.7313 44.9943 16.3782C44.8305 16.009 44.5438 15.7521 44.1342 15.6076C43.741 15.4632 43.1922 15.3829 42.4877 15.3669H36.344V13.0312H42.4386C43.0447 13.0151 43.5198 12.9509 43.8639 12.8385C44.2243 12.7262 44.4783 12.5094 44.6257 12.1884C44.7732 11.8673 44.8469 11.4178 44.8469 10.8399C44.8469 10.246 44.765 9.79651 44.6011 9.4915C44.4537 9.17044 44.1916 8.95373 43.8147 8.84136C43.4379 8.72899 42.9137 8.6728 42.242 8.6728C41.3245 8.6728 40.5135 8.6728 39.8091 8.6728C39.1046 8.6728 38.4738 8.68083 37.9168 8.69688C37.3598 8.69688 36.8437 8.71294 36.3686 8.74504L36 6.19263C36.6553 6.12842 37.2861 6.08829 37.8922 6.07224C38.5148 6.04013 39.1865 6.02408 39.9074 6.02408C40.6282 6.00803 41.472 6 42.4386 6ZM39.6862 6.19263V22.8074H36V6.19263H39.6862Z" fill="#5CE5E2"/>
<path d="M57.0119 5C57.3016 5 57.6799 5.00819 58.1467 5.02456C58.6296 5.04093 59.1124 5.07367 59.5953 5.12278C60.0943 5.15552 60.5209 5.20464 60.875 5.27012L60.5611 7.603H58.2915C57.6799 7.603 57.2533 7.72578 57.0119 7.97135C56.7705 8.21692 56.6497 8.64256 56.6497 9.24829V22.7053H53.0764V8.78172C53.0764 8.01228 53.1971 7.34925 53.4386 6.79263C53.6961 6.23602 54.1146 5.80218 54.6941 5.49113C55.2735 5.16371 56.0461 5 57.0119 5ZM59.9816 10.5744V12.9563H51V10.6971L53.1488 10.5744H59.9816Z" fill="white"/>
<path d="M67.3079 10.2551C68.8048 10.2551 70.004 10.4679 70.9054 10.8936C71.8068 11.3029 72.4506 11.9741 72.8369 12.9072C73.2393 13.8404 73.4405 15.0928 73.4405 16.6644C73.4405 18.2033 73.2393 19.4393 72.8369 20.3724C72.4506 21.3056 71.8068 21.9768 70.9054 22.3861C70.004 22.7954 68.8048 23 67.3079 23C65.827 23 64.6279 22.7954 63.7104 22.3861C62.809 21.9768 62.1571 21.3056 61.7547 20.3724C61.3523 19.4393 61.1511 18.2033 61.1511 16.6644C61.1511 15.0928 61.3523 13.8404 61.7547 12.9072C62.1571 11.9741 62.809 11.3029 63.7104 10.8936C64.6279 10.4679 65.827 10.2551 67.3079 10.2551ZM67.3079 12.9072C66.6962 12.9072 66.2134 13.0136 65.8592 13.2265C65.5051 13.4393 65.2556 13.8158 65.1108 14.3561C64.9659 14.8963 64.8935 15.6658 64.8935 16.6644C64.8935 17.6467 64.9659 18.4079 65.1108 18.9482C65.2556 19.4884 65.5051 19.8649 65.8592 20.0778C66.2134 20.2742 66.6962 20.3724 67.3079 20.3724C67.9195 20.3724 68.4024 20.2742 68.7565 20.0778C69.1107 19.8649 69.3601 19.4884 69.505 18.9482C69.6499 18.4079 69.7223 17.6467 69.7223 16.6644C69.7223 15.6658 69.6499 14.8963 69.505 14.3561C69.3601 13.8158 69.1107 13.4393 68.7565 13.2265C68.4024 13.0136 67.9195 12.9072 67.3079 12.9072Z" fill="white"/>
<path d="M84.1809 10.2551C86.4344 10.2551 87.5611 11.3765 87.5611 13.6194V22.7053H83.9878V14.749C83.9878 14.2087 83.8912 13.8404 83.698 13.6439C83.5049 13.4311 83.1749 13.3247 82.7081 13.3247C82.193 13.3247 81.6619 13.4311 81.1146 13.6439C80.5673 13.8404 79.8913 14.1514 79.0865 14.5771L78.9175 12.5389C79.7706 11.8022 80.6398 11.2374 81.525 10.8445C82.4264 10.4516 83.3117 10.2551 84.1809 10.2551ZM78.7485 10.5744L79.1589 12.9809L79.4486 13.3001V22.7053H75.8753V10.5744H78.7485Z" fill="white"/>
<path d="M94.0217 10.5744V22.7053H90.4725V10.5744H94.0217ZM93.0318 5.22101C93.7401 5.22101 94.0942 5.58936 94.0942 6.32606V7.62756C94.0942 8.36426 93.7401 8.73261 93.0318 8.73261H91.4866C90.7784 8.73261 90.4243 8.36426 90.4243 7.62756V6.32606C90.4243 5.58936 90.7784 5.22101 91.4866 5.22101H93.0318Z" fill="white"/>
<path d="M108.59 10.5744L105.475 14.7981C105.33 15.0273 105.145 15.2483 104.92 15.4611C104.694 15.6739 104.509 15.8295 104.364 15.9277V16.0259C104.509 16.1078 104.694 16.2797 104.92 16.5416C105.145 16.8035 105.33 17.0655 105.475 17.3274L109 22.7053H105.016L100.936 15.8786L104.606 10.5744H108.59ZM100.622 5.51569L100.646 12.6126C100.646 13.1855 100.614 13.7422 100.55 14.2824C100.485 14.8226 100.389 15.3547 100.26 15.8786C100.372 16.3861 100.461 16.91 100.525 17.4502C100.59 17.9741 100.622 18.4652 100.622 18.9236V22.7053H97.0486V5.51569H100.622ZM102.288 14.8472V17.0573H99.5113V14.8472H102.288Z" fill="white"/>
<path d="M8.42531 9.60793C8.42531 9.12074 8.82025 8.7258 9.30743 8.7258H15.9109C16.398 8.7258 16.793 9.12074 16.793 9.60793C16.793 10.0951 16.398 10.4901 15.9109 10.4901H9.30743C8.82025 10.4901 8.42531 10.0951 8.42531 9.60793Z" fill="#5CE5E2"/>
<path d="M9.30743 12.4895C8.82025 12.4895 8.42531 12.8845 8.42531 13.3717C8.42531 13.8588 8.82025 14.2538 9.30743 14.2538H13.3565C13.8437 14.2538 14.2386 13.8588 14.2386 13.3717C14.2386 12.8845 13.8437 12.4895 13.3565 12.4895H9.30743Z" fill="#5CE5E2"/>
<path d="M8.43011 17.1613C8.43011 16.6625 8.8345 16.2581 9.33333 16.2581C9.83217 16.2581 10.2366 16.6625 10.2366 17.1613C10.2366 17.6601 9.83217 18.0645 9.33333 18.0645C8.8345 18.0645 8.43011 17.6601 8.43011 17.1613Z" fill="#5CE5E2"/>
<path fill-rule="evenodd" clip-rule="evenodd" d="M3.01075 0C1.34796 0 0 1.34796 0 3.01075V24.9892C0 26.652 1.34796 28 3.01075 28H24.9892C26.652 28 28 26.652 28 24.9892V3.01075C28 1.34796 26.652 0 24.9892 0H3.01075ZM6.59461 22.731C7.07704 23.1956 7.70242 23.4279 8.47073 23.4279H16.1092C17.9139 23.4279 19.3433 22.999 20.3975 22.1414C21.4696 21.2659 22.0056 20.0955 22.0056 18.6304V17.2367C22.0056 16.3969 21.7376 15.6375 21.2015 14.9585C20.6834 14.2795 19.9955 13.7882 19.1378 13.4844V13.4576C19.6738 13.1181 20.0848 12.6804 20.3707 12.1443C20.6744 11.6083 20.8263 11.0455 20.8263 10.4558V9.11575C20.8263 7.7578 20.3082 6.6768 19.2718 5.87275C18.2534 5.06869 16.8954 4.66667 15.198 4.66667H5.87097V20.9085C5.87097 21.659 6.11218 22.2665 6.59461 22.731Z" fill="#5CE5E2"/>
</svg>
